<svg xmlns="http://www.w3.org/2000/svg" data-name="Layer 2" viewBox="0 0 1793.2 530.15"><g data-name="Layer 1"><path d="M503.12 419.16c13.42-10.64 20.72-23.6 22.83-39.75 1.51-11.49-4.16-19.85-14.69-22.83-12.06-3.42-24.07-1.79-34.94 3.8-37.01 19.02-61.33 49.74-70.05 93.79-3.29 16.64 2.09 30.74 12.73 42.7 6.3 7.08 14.14 9.58 23.02 8.53 12.37-1.47 23.83-5.96 34.76-12.26 19.5-11.25 35.77-26.8 49.49-45.32 33.92-45.8 56.59-97.62 68.64-154.92.29-1.39 0-2.93 0-4.56-15.64 10.43-16.53 10.43-27.77-.09-2.74 3.34-5.36 6.83-8.27 10.01-3.61 3.94-7.71 6.62-13.18 4.45-5.52-2.19-8.86-6.59-9.09-12.74-.29-7.56-.29-15.28.75-22.73 2.14-15.41 5.08-30.68 7.64-46.03.48-2.88.69-5.81 1.21-10.3-6.8 4.9-9.43 11.18-11.48 17.47-6.76 20.78-13.12 41.72-19.63 62.6-1.46 4.67-2.39 9.66-4.58 13.89-1.01 1.96-4.5 3.38-6.75 3.21-1.24-.09-3.29-4.09-3.15-6.16.46-6.42 1.66-12.79 2.82-19.12 2.73-14.92 5.74-29.78 8.35-44.72.95-5.45 1.1-11.07 1.61-16.61-.7-.29-1.4-.59-2.1-.88-1.6 3.06-3.64 5.95-4.74 9.21-6.24 18.56-12.31 37.19-18.3 55.85-2.19 6.82-3.87 13.83-5.99 20.67-.88 2.85-1.83 5.95-3.61 8.09-1.39 1.67-4.47 3.21-6.16 2.62-1.62-.57-3.39-3.93-3.4-6.07-.03-5.29.93-10.57 1.44-15.87.17-1.76.19-3.54.38-7.22-5.43 10.13-9.47 18.96-14.68 26.88-2.64 4.02-6.99 7.45-11.25 9.32-6.31 2.78-9.14.73-10.25-6.76-.77-5.17-.82-10.67-.11-15.85 2.37-17.3 5.34-34.5 7.82-51.79.89-6.18 1.03-12.49 1.52-18.74-.83-.36-1.67-.71-2.5-1.07-2.4 3.81-5.58 7.3-7.08 11.5-6.81 19.12-13.28 38.38-19.59 57.7-2.45 7.51-4.08 15.34-6.3 22.95-.72 2.48-1.64 5.36-3.35 6.9-1.62 1.45-4.74 2.41-6.56 1.68-1.64-.66-3.17-3.81-3.37-6.01-.26-2.91.79-5.97 1.33-8.96 3.56-19.78 7.19-39.54 10.63-59.34.7-4.04.68-8.24 1.07-13.5-4.81 2.45-5.78 6.61-6.98 10.12-8.03 23.5-15.85 47.09-23.71 70.66-1.31 3.92-2.25 8.01-3.74 11.84-1.3 3.35-3.79 6.4-7.24 4.37-1.91-1.12-3.62-4.76-3.59-7.24.07-6.44 1.14-12.86 1.84-19.28.2-1.85.49-3.68-.66-6.14-1.55 3.54-2.76 7.32-4.7 10.58-5.66 9.53-11.01 19.39-17.64 28.08-4.99 6.53-11.41 5.25-15.44-2.13-2.45-4.48-3.84-9.65-5.93-15.09-3.65 1.82-7.25 4.3-11.18 5.32-2.16.56-5.74-.53-7.12-2.3-2.17-2.79-.13-5.65 2.41-7.53.86-.64 1.79-1.19 2.74-1.68 10.35-5.26 15.3-13.72 16.94-26.4 1.68-13.04 6.16-25.66 9.72-38.37 1-3.58 2.81-6.98 4.67-10.18 2.32-3.99 5.37-7.22 10.32-5.99 4.81 1.19 7.36 5.44 7.4 9.98.07 7.89-.46 15.96-1.99 23.66-2.64 13.25-9.12 24.58-17.06 34.96-6.29 8.22-6.72 13.79-1.54 26.2 2.65-3.69 5.47-6.52 7.05-10.02 5.08-11.24 10.37-22.45 14.33-34.17 5.54-16.41 9.93-33.27 14.86-49.92 1.24-4.18 1.41-9.69 7.33-9.28 3.77.26 5.3 4.76 4.47 12.28-.86 7.78-1.83 15.55-1.22 23.89 1.88-4.37 3.69-8.77 5.65-13.1 3.54-7.84 6.93-15.79 10.85-23.41 2.58-5.02 6.05-9.99 12.25-8.96 6.58 1.1 7.27 7.31 8.12 13.04.22 1.46.49 2.91 1.2 7.15 2.72-5.45 4.08-9.11 6.18-12.17 3.11-4.51 6.19-9.42 10.28-12.67 6.6-5.23 14.37-2 16.47 6.63 1.13 4.66 1.31 9.89.72 14.69-2.06 16.58-4.64 33.08-7.02 49.61-.86 5.94-1.73 11.88-2.85 19.57 6.08-3.71 8.08-8.68 9.8-13.26 5.79-15.49 11.23-31.13 16.49-46.84 2.99-8.92 5.35-18.1 8.04-27.14.75-2.53 1.2-5.39 2.62-7.4 1.31-1.85 4.2-4.23 5.59-3.72 2.15.78 4.71 3.57 5.15 5.92.84 4.55.33 9.4.4 16.42 2.4-5.11 3.86-8.38 5.46-11.57 1.84-3.67 3.52-7.48 5.78-10.83 3.15-4.69 6.95-8.93 13.06-7.65 5.52 1.16 6.39 6.36 7.51 11.22.24 1.06.79 2.04 1.59 4.03 1.84-2.85 3.24-5.2 4.81-7.42 2.13-3.01 4.28-6.03 6.63-8.83 3.71-4.41 8.06-7.95 13.83-5.2 5.81 2.77 6.1 8.82 5.83 14.66-.17 3.78-.71 7.56-1.33 11.3-2.6 15.72-5.46 31.39-7.86 47.14-.99 6.52-1.94 13.26.62 21.24 2.68-2.57 4.84-3.88 5.99-5.87 5.96-10.33 11.16-20.86 12.13-33.55 1.07-14.01 3.27-27.92 5.07-41.86.39-3 .63-6.31 2.01-8.78 1.2-2.15 3.9-3.31 5.94-4.91 1.32 2.37 3.94 4.89 3.74 7.1-.99 10.96-3 21.81-4.13 32.77-1.17 11.33-2 22.72-2.44 34.11-.16 4.23 1.23 8.52 2.06 13.7 7.31-2.87 10-8.45 11.59-14.01 4.66-16.31 8.86-32.78 12.8-49.32 1.84-7.71 2.64-15.71 3.95-23.57.37-2.23.37-4.88 1.53-6.53 1.27-1.83 3.85-3.98 5.53-3.7 1.72.29 3.19 3.26 4.46 5.28.5.8.23 2.23.17 3.36-5.19 95.17-27.84 183.71-83.94 259.33-13.94 18.8-30.06 35.36-49.99 46.42-10.79 5.99-22.38 11.18-34.16 14-28.71 6.88-53.11-13.86-55.69-45.79-1.23-15.21 1.96-29.59 7.46-43.31 11.97-29.84 31.04-53.11 56.64-70.01 14.14-9.33 29.48-13.9 46.12-12.78 23.74 1.6 35.96 19.65 30.18 44.77-3.42 14.87-10.82 27.11-21.62 36.92-6.16 5.6-13.18 8.58-21.32 7.81-6.94-.66-11.19-4.7-12.46-11.68-1.33-7.3 2.18-15.5 7.86-18.36 6.44-3.25 12.97.02 14.74 7.59.5 2.11.28 4.42.49 8.54ZM336.77 285.01l2.45 1.73c2.13-7.08 4.26-14.16 6.39-21.25-.86-.32-1.73-.64-2.59-.96-2.08 6.83-4.17 13.65-6.25 20.48ZM1301.5 226.57c-1.56 3.32-3.29 6.55-4.66 9.96-5.09 12.73-11.87 24.36-21.55 33.35-5.16 4.79-11.51 8.87-17.96 11.07-11.1 3.78-17.66-.25-22.98-11.71-.62-1.33-1.25-2.66-2.6-5.52-2.43 4.78-4.41 8.5-6.24 12.31-2.26 4.71-5.22 6.92-10.2 4.41-1.82-.92-3.93-1.35-5.95-1.56-8.21-.82-12.37-4.48-12.41-13.24-.03-6.33 1.08-12.91 2.92-18.93 2.52-8.27 6.19-16.12 9.38-24.15 1.8-4.54 3.88-8.96 5.39-13.61 2.44-7.55 1.8-9.17-4.34-12.94-3.62-2.22-7.35-4.22-11.98-6.86-4.85 9.65-9.45 19.39-14.55 28.82-7.61 14.08-15.38 28.07-23.47 41.82-2.4 4.08-5.8 7.69-9.29 10.76-7.25 6.37-11.5 5.9-18.23-1.33-.95-1.02-1.34-2.64-1.73-3.43-5.99 2.65-10.38 5.08-15.03 6.53-7.83 2.45-15.46 1.82-21.44-5.02-6.05-6.91-5.97-15.1-2.91-23.44 1.55-4.23 3.51-8.28 6.4-15.02-3.91 3.48-6.06 5.44-8.27 7.33-11.51 9.87-22.47 20.66-34.71 29.32-12.83 9.08-20.8 7.12-32.05-4.58-1.3 1.11-2.5 2.88-4 3.25-2.18.54-5.31 1.03-6.67-.22-1.38-1.27-1.64-4.72-1.43-7.11.22-2.56 1.67-4.96 2.41-7.49 5.61-19.19 11.2-38.4 16.75-57.61.37-1.28.41-2.67-.68-4.61-3.17 4.87-6.02 10.05-9.6 14.54-4.31 5.43-8.87 10.79-14.06 15.16-2.33 1.96-6.48 1.99-9.73 1.77-1.31-.09-3.32-3.11-3.44-4.92-.11-1.72 1.57-4.86 2.91-5.18 9.32-2.21 13.62-10.39 18.23-17.84 17.64-28.51 32.43-58.7 42.6-91.31 9.21-29.52 17.81-59.26 26.74-88.89.86-2.87 1.67-5.96 3.3-8.28 1.02-1.44 3.79-2.57 5.33-2.11 1.54.47 3.37 3 3.55 4.81.28 2.89-.37 6.04-1.2 8.89a19681.8 19681.8 0 0 1-25.62 86.84c-7.74 26.04-15.6 52.03-23.36 78.06-.41 1.38-.35 2.93-.77 6.72 3.75-3.47 6.02-5.95 8.63-7.9 5.45-4.08 10.75-8.67 16.72-11.63 11.07-5.49 19.6-.07 21.21 13 1.37 11.12-.18 22.01-3.42 32.61-1.2 3.91-2.44 7.81-4.4 14.07 3.51-3.16 5.58-4.73 7.32-6.65 8.35-9.22 16.49-18.66 24.92-27.8 8.27-8.96 17.5-16.48 29.08-19.67 8.47-2.33 16.09-1.75 23.3 5.35 6.03 5.94 6.58 11.87 4.16 19.32-6 18.44-14.41 35.44-25.41 50.92-1.71 2.4-3.81 4.66-4.86 7.38-.77 1.98-.11 4.61-.05 9.89 4.3-4.78 7.36-7.28 9.34-10.55 6.93-11.4 13.86-22.84 20.11-34.7 8.69-16.5 16.75-33.38 25.1-50.1 1-2 1.91-4.1 3.18-5.9 2.02-2.86 4.96-5.5 7.92-2.68 1.95 1.86 3.22 5.73 3.14 8.65-.1 3.55-1.93 7.05-3.3 11.52 3.5 2.05 6.52 3.74 9.47 5.56 10.44 6.44 13.03 13.2 8.76 25.58-3.18 9.24-7.38 18.06-10.95 27.15-3.1 7.89-5.79 15.94-3.39 25.86 4.1-5.41 9.32-10.21 12.12-16.32 14.5-31.65 28.38-63.63 42.43-95.52.42-.96.33-2.2.62-4.34-12.98-1.4-25.77-3.47-38.61-4.03-38.88-1.7-77.77-2.78-116.66-4.17-7.71-.27-15.41-.75-23.1-1.27-3.82-.26-8.72-.2-8.16-6.17.53-5.61 5.33-5 9.18-4.93 7.71.14 15.42.28 23.13.56 39.24 1.4 78.49 2.63 117.71 4.4 13.61.61 27.17 2.62 41.66 4.08 1.53-3.81 3.13-7.49 4.49-11.26 9.98-27.6 19.9-55.23 29.88-82.83 1.02-2.81 1.81-6 3.6-8.12 1.35-1.6 4.55-2.95 6.15-2.27 1.66.71 3.31 4.02 3.29 6.18-.03 3.29-1.29 6.65-2.4 9.83-9.37 27.04-18.82 54.03-28.23 81.05-.96 2.77-1.79 5.59-2.86 8.96 22.46 3.77 44.24 7.44 66.04 11.05 4.05.67 9.55-.06 8.81 6.66-.7 6.25-6.02 5.54-10.1 4.9-19.77-3.07-39.5-6.42-59.26-9.61-3.43-.55-6.9-.8-11.19-1.28-6.77 15.6-13.42 30.92-20.07 46.25.37.37.74.73 1.1 1.1 5.28-3.74 10.38-7.83 15.88-11.13 6.77-4.05 14.09-8.29 21.7-2.8 7.17 5.19 6.6 13.87 6.11 21.82-.45 7.17-1.87 14.28-2.87 21.41l.23-.36Zm-222.54-50.63c-15.76 3.7-30.16 19.17-39.23 41.49 1.41.25 2.65.55 3.91.66 5.05.45 9.08 2.86 9.57 8.56.25 2.98-.89 6.9-2.72 9.11-3.87 4.67-7.33-.51-11.18-2.14-1.29 1.97-2.76 3.65-3.62 5.63-2.41 5.55-4.72 11.42-.69 17.09 2.5 3.52 8.63 2.23 14.96-3.6 18.76-17.27 28.91-39.43 30.46-66.09.2-3.49-.93-7.08-1.46-10.69Zm180.73 61.22c-11.24 3.95-17.84 17.31-14.83 27.2 1.56 5.12 5.26 6.73 9.04 5.01 5.34-2.44 10.89-5.44 15.01-9.72 13.3-13.83 20.66-31.34 23.8-50.88.74-4.59.02-9.46-.03-14.31-13.78 1.55-26.12 11.8-35.62 28.73 2.07.53 4.18.74 6.03 1.59 8.67 3.99 11.27 16.02 5.11 23.7-2.29 2.85-5 6.04-8.93 3.66-4.48-2.72-3.62-6.71-1.28-10.7.53-.9.8-1.98 1.71-4.27Zm-105.64-46.67c-.6-.51-1.2-1.01-1.81-1.52-18.31 10.42-32.28 25.98-43.4 44.72-3 5.05-5.62 10.55-7.45 16.21-2.33 7.23 1.32 12.03 8.14 11.85 8.8-.23 18.93-9.01 22.28-17.89 5.55-14.69 11.74-29.1 17.72-43.6 1.37-3.32 3-6.52 4.51-9.78Z"/><path d="M711.94 275.21c-15.55 12.57-25.35 11.01-36.44-6.57-1.97 2.85-3.7 5.49-5.55 8.04-3.39 4.65-7.38 8.48-13.29 7.46-6.24-1.07-9.72-5.86-11.38-12.08-1.51-5.69-2.53-11.54-4.16-19.13-4.73 9.31-8.5 16.97-12.5 24.48-1.56 2.93-3.27 6.08-5.65 8.07-1.46 1.22-4.67 1.21-6.46.29-1.1-.57-1.58-3.98-1.29-5.94.32-2.12 1.94-3.99 2.83-6.04 8.4-19.22 17.48-38.14 24.86-57.82 3.89-10.39 4.95-22.08 7.02-33.24 4.9-26.45 9.63-52.94 14.57-80.18-2.25-1.07-4.3-2.36-6.5-3.05-24.87-7.72-50.08-12.51-75.7-5.78-10.07 2.64-19.86 7.22-29.16 12.27-4.36 2.37-7.96 7.47-10.54 12.21-1.45 2.67-1.15 7.69.24 10.6 1.25 2.62 5.05 3.8 9.23 6.64-.04-4.1.07-5.8-.1-7.48-.57-5.88 1.96-9.46 6.97-11.07 4.78-1.53 10.41.68 12.96 5.13 2.65 4.63 2.62 9.41-.25 13.94-5.6 8.84-24.28 12.37-32.68 6.26-8.85-6.44-11.72-21.13-5.13-31.52 3.67-5.79 8.62-11.1 13.98-15.06 13.62-10.08 29.34-13.97 45.55-15.86 21.25-2.48 41.94 1.07 62.46 6.73 2.71.75 5.43 1.48 8.17 2.1.62.14 1.33-.18 2.93-.44.75-3.22 1.53-6.83 2.43-10.4 5.18-20.5 10.25-41.04 15.73-61.45 1.04-3.86 3.24-7.72 5.82-10.62 4.65-5.25 11.61-3.71 13.11 3.33 1.63 7.66 2.63 15.96 1.72 23.67-2.18 18.44-5.59 36.71-8.6 55.03-.61 3.68-1.62 7.29-2.57 11.45 2.43 1.3 4.46 2.68 6.66 3.54 23.73 9.26 46.95 20.31 72.15 24.4 18.69 3.03 37.04 2.47 54.59-6.29 9.67-4.82 14.04-13.29 14.65-24.39.38-6.8-1.75-12.69-6.03-17.7-10.84-12.7-35.15-14.48-47.46-3.46-5.41 4.85-6.12 7.91-3.29 16.17 1.59-1.72 2.83-3.39 4.36-4.64 4.07-3.33 8.84-3.84 12.6-.38 2.32 2.14 4.1 6.32 4.2 9.65.16 5.45-3.4 9.15-8.24 10.44-8.21 2.2-15.35-.96-21.18-7-5.28-5.47-6.16-12.53-4.06-20.07 2.3-8.23 7.56-13.83 14.36-17.32 17.01-8.74 34.09-8.59 50.11 2.68 21.97 15.45 20.75 50.79-2.07 64.73-14.79 9.03-31.04 11.51-47.75 10.93-21.64-.75-42.12-7.35-62.3-15.29-11.18-4.4-22.34-8.89-34.01-13.53-1.13 2.35-2.26 4.19-2.95 6.2-10.01 29.22-20.06 58.42-29.91 87.7-6.39 18.97-7.49 38.55-4.66 58.44.21 1.48.7 2.95 1.27 4.33.41.98 1.16 1.8 2.53 3.83 1.99-2.35 4.34-4.07 5.31-6.47 3.39-8.32 6.52-16.79 9.35-25.36 5.21-15.78 10.43-31.51 19.91-45.06 5.07-7.24 11.23-12.55 19.79-13.72 12.15-1.66 20.38 5.83 21.11 19.11 1.01 18.34-3.64 35.37-10.04 52.03-1.51 3.92-4.7 7.94.33 13.66 2.77-4 6.15-7.34 7.75-11.49 5.82-15.05 11.27-30.27 16.39-45.62 2.73-8.2 4.39-16.82 6.71-25.2 1.09-3.93 2.05-9.45 6.79-8.48 2.74.56 4.77 5.19 7.56 8.51 1.37-1.13 3.69-3.35 6.26-5.12 10.12-6.98 20.54-3.43 24.67 8.82 1.66 4.92 2.43 10.35 2.73 15.61.9 15.75-1.02 31.26-6.03 46.02-2.12 6.25-5.43 12.58-9.69 17.29-9.2 10.19-21.03 7.61-31.73-6.64-.88 3.34-1.73 6-2.27 8.74-12.12 61.34-23.23 122.94-39.99 183.08-1.42 5.09-2.65 10.36-4.94 14.98-.89 1.8-4.6 2.93-6.8 2.59-1.18-.18-2.06-4.05-2.7-6.38-.25-.9.57-2.13.88-3.22 13.49-47.27 24.07-95.32 33.06-143.82 3.24-17.46 7.11-34.78 10.69-52.17-.62-.38-1.23-.77-1.85-1.15-1.57 1.99-3.11 4.01-4.71 5.96-8.95 10.85-11.16 14.13-24.76 6.61Zm54.57-44.09c-.56 7.67-1.34 12.84-1.19 17.98.15 4.98 1.29 10.19 6.72 11.5 5.26 1.27 8.91-2.3 10.95-6.84 8.33-18.52 11.35-38.12 7.75-58.45-1.64-9.25-6.31-10.52-12.3-3.75-6.94 7.85-11.74 17.29-16.02 26.49 5.05 1.1 9.68 1.16 13.44 3.16 4.91 2.62 6.24 10.7 3.41 14.82-2.45 3.55-5.23 2.77-12.77-4.9Zm-54.16-31.53c-2.53 2.08-4.15 2.94-5.16 4.32-11.8 16.07-18.74 34.38-20.95 54.79-.16 1.47 0 3.05.29 4.51 1.61 7.79 8.72 10.79 14.44 5.8 5.05-4.41 8.02-9.66 7.38-17.61-.78-9.74-.27-19.67.41-29.46.49-6.99 2.18-13.89 3.59-22.36ZM695.26 26.3c-1.44.73-2.47.91-2.58 1.35-4.9 20.81-9.81 41.62-14.36 62.52-.3 1.4 2.15 3.51 4.6 7.24 7.75-24.62 11.06-47.36 12.34-71.11Zm-18.49 80.06c-3.97 9.22-5.33 19.06-6.83 31.05 7.42-15.43 9.57-24.13 6.83-31.05ZM1570.87 271.2c-6.08 3.08-10.01 5.37-14.16 7.07-3.56 1.47-7.35 3-11.06 3.06-2.12.04-4.29-2.8-6.44-4.35 1.51-2.18 2.62-5.18 4.63-6.36 3.64-2.13 8.19-2.51 11.7-4.81 8.07-5.28 16.2-10.67 23.48-17.1 24.04-21.23 44.07-46.76 63.72-72.55 11.6-15.23 22.2-31.34 33.35-46.98 2.65-3.72 4.78-9.34 10.64-6.37 3.75 1.9 3.3 6.44-1.52 13.81-5.88 8.99-11.83 17.95-18.17 26.56-25.6 34.75-51.37 69.35-77.07 104.01-1.51 2.03-2.94 4.13-3.67 7.8 3.37-1.31 6.65-3.08 10.12-3.82 6.79-1.44 13.78-3.64 20.52-3.1 10.41.85 14.42 9.63 9.77 19.72-2.16 4.69-5.15 9.11-8.43 12.99-9.96 11.75-20.29 23.13-30.38 34.75-2.77 3.19-5.19 6.73-9.19 11.96 8.39-.03 12.87-3.52 17.18-7.06 12.56-10.33 24.94-20.93 37.51-31.24 7.31-6 15.11-11.61 24.46-12.36 6.1-.49 12.35.9 18.5 1.78 2.01.28 3.89 2.3 5.83 2.3 8.93-.01 12.55 5.32 13.14 14.22.07 1.08.62 2.13 1.12 3.78 10.18 2.69 20.45 3.51 30.68-.33 3.11-1.17 6.74-2.86 8.2 1.12.89 2.41-.46 6.45-1.9 9.04-1.94 3.48-4.94 6.26-6.81 10.91 2.6-1.07 5.22-2.07 7.78-3.23 7.85-3.54 15.89-6.12 24.52-5.05 10.97 1.37 15.99 9.22 13.51 20.86-.08.37-.13.75-.24 1.11-6.33 20.09-32.59 52.41-60.44 56.6-1.04.16-2.09.32-3.14.36-14.31.59-21.3-5.96-23.85-23.33-2.39 2.17-4.63 3.73-6.33 5.8-23.77 28.96-47.42 58.04-71.22 86.97-12.13 14.74-24.52 29.24-36.79 43.84-.47.56-.98 1.09-1.48 1.62-3.04 3.16-6.48 7.59-10.53 2.93-4-4.6.38-8.2 3.14-11.51 49.59-59.49 99.19-118.97 148.77-178.47.67-.8 1.06-1.87 2.31-4.11-6.81-1.86-13.17-2.22-20.01-2.72-1.57 2.49-3.13 4.92-4.64 7.39-8.6 14.13-18.83 26.5-32.48 35.08-8.01 5.04-16.56 8.31-26.02 7.42-13.88-1.3-21.49-10.57-21.21-25.75.05-2.94.37-5.88.66-10.18-4.33 3.14-7.68 5.72-11.16 8.06-6.35 4.27-13.07 7.59-20.78 6.65-9.35-1.14-13.17-9.68-7.86-18.05 3.56-5.61 7.74-10.8 12.02-15.8 9.77-11.42 19.88-22.5 29.6-33.97 2.67-3.14 4.44-7.18 6.63-10.8-.45-.76-.9-1.52-1.35-2.27-4.32.66-8.79.77-12.93 2.09-15.85 5.05-28.87 15.35-40.76 27.34-8.21 8.27-15.87 17.19-23.89 25.69-2.23 2.36-4.68 4.61-7.35 6.33-2.98 1.92-6.69 1.93-8.16-1.76-.78-1.96.34-5.81 1.82-7.69 14.04-17.96 28.35-35.67 42.53-53.49 1-1.26 1.63-2.87 3.59-6.41Zm109.95 57.25c-4.26-6.15-8.32-12-12.93-18.65-21.44 4.55-36.75 18.75-47.34 39.75-.66 1.3-1.03 2.84-1.26 4.32-1.4 8.86 2.84 14.84 11.1 15.52 8.04.66 15.14-2.51 21.68-7.12 12.24-8.64 21.64-20.15 28.74-33.81Zm33.52 45.7c-7.85 1.42-12.21 4.51-15.62 11.09-3.72 7.18-1.79 12.54 5.64 12.63 6.07.07 12.66-1.21 18.15-3.93 16.39-8.14 28.38-21.8 37.07-38.8 1.52-2.99 1.78-6.74 2.84-10.99-18.32-3.43-30.46 7-44.65 15.77 6.73 4.75 10.95 9.67 8.99 17.58-1.07 4.31-3.19 8.15-7.84 7.41-4.72-.75-4.55-4.84-3.67-8.9.11-.51-.58-1.24-.9-1.86ZM442.25 52.46c-.79 2.86-1.19 5.91-2.43 8.49-3.1 6.45-11.67 8.86-17.34 5.22-6.11-3.93-7.96-12.47-3.2-18.72 2.51-3.3 6.35-6.27 10.11-7.45 15.68-4.89 35.42 7.66 35.66 27.93.15 12.77-3.44 23.91-10.92 33.65-8.55 11.12-19.57 18.37-31.9 23.29-29.24 11.67-59.43 17.44-90.67 16.21-3.43-.14-6.87.05-10.86.09.72 3.73 1.81 6.98 1.79 10.23 0 1.87-1.58 5.02-2.85 5.28-1.93.38-4.58-.74-6.21-2.18-1.48-1.32-1.8-4.07-3-5.9-4.38-6.64-12.14-6.84-15.21.56-3.69 8.89-6.76 18.46-8.01 28.06-1.66 12.74-1.8 25.79-1.71 38.71.12 18.64.97 37.29 1.63 55.92 1.27 36.18 1.58 72.31-4.31 108.13-2.6 15.84-6.72 31.27-14.43 45.01-4.28 7.62-9.69 15.22-16.21 20.47-14.16 11.42-32.7 7.27-43.67-8.5-7.57-10.89-11.83-23.41-13.32-36.81-3.16-28.35-1.19-56.24 7.73-83.29 3.35-10.14 7.97-19.59 15.72-26.58 6.6-5.95 14.12-11.27 22.99-6.92 8.71 4.27 10.56 13.67 11.05 23.06.51 9.79-1.82 18.92-7.23 26.84-3.2 4.7-7.19 8.75-13.21 7.11-4.88-1.33-6.02-5.94-6.24-10.74-.34-7.54 2.78-13.5 8.31-15.59 1.92-.73 4.1-.69 6.73-1.09 2.1-6.91.66-13.02-3.79-19.04-6.14.14-10.8 3.45-14.21 8.31-3.36 4.79-6.58 9.98-8.59 15.54-10.38 28.7-12.67 58.39-6.92 88.55 1.39 7.27 4.49 14.5 8.12 20.87 9.21 16.18 25.42 17.31 36.7 2.65 3.98-5.18 7.12-11.3 9.82-17.43 9.06-20.58 12.79-42.74 13.54-65.25.87-25.84.44-51.73.24-77.6-.18-23.22-1.09-46.43-1.16-69.64-.07-22.27 2.37-44.06 14.37-63.37-48.52-18.25-97.19-28.57-147.88-15.63-13.53 3.45-26.04 9.16-35.36 20.94-4.5 5.69-7.37 11.94-4.66 19.87 3.42 9.99 9.52 13.65 18.92 10.63 2.64-.85 5.11-2.32 8.91-4.1-2.08-1.07-3.02-1.66-4.04-2.05-4.31-1.67-7.71-4.47-7.3-9.83.45-5.79 4.73-8.28 9.29-9.53 6.12-1.69 11 1.15 14.76 6.29 3.5 4.79 3.57 11.53.46 17.12-7.36 13.24-29.86 19.11-41.23 10.75-12.37-9.1-15.37-28.47-6.26-42.63 8.8-13.66 21.37-21.68 35.8-26.46 21-6.95 42.61-9.04 64.44-8.43 23.94.66 47.42 4.88 70.26 12.88 32.49 11.38 65.64 15.73 99.6 11.39 18.85-2.41 37.29-6.91 54.96-14.54 9.18-3.96 17.68-9.2 24.46-17.25 5.61-6.67 9.1-14.41 9.84-23.44.86-10.46-2.07-15.3-11.89-20.07Z"/><path d="M109.25 361.21c-8.68 12.91-19.77 18.58-34.04 16.23-10.74-1.77-18.56-7.97-21.16-19.35-1.81-7.92-2.65-16.61-1.71-24.64 1.84-15.66 7.43-30.09 17-42.28 7.1-9.04 15.94-14.62 27.23-15.03 8.77-.32 14.49 3.57 17.74 12.72 5.76 16.22 5.93 32.66 2.91 49.39-.6 3.35-1.43 6.66-2.15 9.94 6.6 4.94 11.45 5.15 17.96.13 9.71-7.48 14.78-18.27 16.45-30.71 3.59-26.72-2.7-50.67-19.08-71.08-21.06-26.25-55.54-29.33-80.07-6.94-6.35 5.8-12.49 12.63-16.68 20.31-21.22 38.87-28.94 80.43-17.95 124.87 4.16 16.84 12.37 31.26 24.11 43.47 24.71 25.69 67.75 24.49 90.75-.77 15.02-16.49 25.94-35.84 34.02-57.09 11.41-29.99 16.31-61.26 13.88-93.73-.45-6-1.51-11.95-2.37-18.54-2.94.03-5.27.13-7.6.06-4.46-.15-7.02-3.08-8.47-7.31-2.24-6.53-.4-14.91 3.78-17.71 4.49-3.01 11.4-1.27 15.4 5.57 3.48 5.96 6.52 12.84 7.63 19.71 8.24 51.21-.81 99.14-24.98 143.65-5.65 10.41-12.28 20.5-19.86 29.31-34.7 40.34-91.53 35.95-121.35-8.92C9.29 405.39 3.07 386.09.98 365.34c-3.61-35.81 3.13-69.64 17.79-101.68 5.99-13.09 14.38-24.31 24.88-33.51 30.71-26.87 72.74-21.9 97.24 11.67 16.49 22.6 23.58 48.33 19.25 76.94-1.22 8.07-3.99 16.26-7.71 23.39-9.9 19.01-23.02 24.54-43.16 19.06ZM90.5 289.57c-3.19 1.47-5.41 1.86-6.81 3.23-15.53 15.21-23.27 34.2-20.44 56.86 1.95 15.6 17.87 22.03 29.71 12.76 3.25-2.55 5.63-6.43 8.66-10C90.3 333.05 88 312.32 90.5 289.57Zm12.95 2.23c-4.92 15.63-3.3 32.4 3.73 41.58 1.47-14.09 2.17-27.24-3.73-41.58ZM810.39 336.7c-1.93-3.95-2.74-5.21-3.19-6.6-2.4-7.43-1.15-13.19 3.67-17.52 4.41-3.96 10.03-4.2 15.68-.67 6.2 3.88 8.11 8.45 7.31 16.1-.65 6.21-3.42 10.86-8.32 13.69-10.98 6.34-22.63 8.25-34.49 3.52-9.9-3.95-16.44-11.95-18.06-23.33-1.6-11.3 3.51-19.86 11.82-26.2 11.61-8.86 25.16-11.14 38.81-12.53 20.86-2.12 41.17 1.26 61.25 7.54 50.72 15.88 98.58 39.26 145.74 64.64 33.59 18.07 67.38 35.8 102.87 49.19 27 10.19 54.77 16.89 83.42 15.84 13.12-.48 26.54-3.09 39.11-7.26 24-7.96 38.05-37.14 32.24-63.78-5.23-23.98-36.58-40.01-56.75-29.01-8.04 4.38-10.86 9.82-10.24 21.04 2.28-2.42 3.95-4.52 5.92-6.21 5.39-4.65 14.27-5.38 19.8-1.82 5.29 3.4 7.71 9.79 6.36 16.73-1.48 7.55-6.96 12.5-15.03 13.58-10.67 1.43-20.38-3.83-25.68-13.89-5.32-10.11-4.41-21.24 3.22-30.65 11.83-14.61 27.28-16.27 43.41-12.13 32.17 8.28 48.1 39.2 38.31 73.57-6.44 22.6-19.64 37.76-40.88 45.05-25.46 8.74-51.12 8-76.96 3.67-28.92-4.84-56.6-14.53-83.13-27.74-35.67-17.75-70.98-36.36-106.55-54.37-39.75-20.12-80.24-38.14-123.07-49.13-18.67-4.79-37.55-5.45-56.28-.8-6.7 1.66-13.67 4.15-19.34 8.19-11.58 8.26-10 22.57 2.87 28.36 4.28 1.93 9.36 1.78 16.18 2.93ZM1301.28 226.94c1.61-1.41 3.61-4.33 4.77-3.98 7.51 2.3 10.38-4.23 14.77-8.13 6.21-5.52 12.63-10.8 19.13-15.93 2.23-1.76 4.91-2.94 7.5-4.05 8.29-3.55 14.78-2.24 19.12 3.67 4.02 5.47 4.22 14.11-.53 21.31-10.75 16.28-25.54 24.35-44.12 23.79-2.42-.07-4.83-.73-8.52-1.32-2.6 5.26-6.08 10.57-7.98 16.47-4.38 13.66 4.42 24.19 17.27 20.44 6.31-1.84 12.76-4.83 17.94-9.05 8.63-7.02 17.11-14.66 24.2-23.43 14.78-18.27 28.6-37.46 42.83-56.26 2-2.64 3.78-5.61 6.21-7.66 1.35-1.13 4.23-1.51 5.69-.69 1.48.83 2.16 3.51 2.99 5.47.24.56-.05 1.56-.38 2.19-6.07 11.52-3.79 20.27 6.42 27.82 5.5 4.06 5.63 11.38 3.5 17.78-1.76 5.29-4.64 10.16-7.23 15.1-4.5 8.58-9.3 16.97-13.69 25.61-1.5 2.94-2.56 6.32-3.09 9.63-.77 4.83 1.43 7.8 5.84 6.84 6.07-1.32 12.53-2.94 17.65-6.45 7.33-5.02 13.74-11.69 20.28-17.97 8.65-8.31 16.69-17.41 25.64-25.31 12.53-11.07 26.84-17.98 43.43-17.42 12.87.44 20.19 6.65 24.01 19.85 1.16 4 2.75 8.55-1.45 11.34-4.46 2.96-6.95-1.13-9.48-4.34-1.59-2.02-3.15-4.12-5.01-5.82-2.73-2.5-5.76-4.41-10.83-1.19 1.79 3.87 3.26 7.86 5.36 11.42 5.42 9.22 8.75 19.03 8.53 30.09-.36 18.31-8.31 32-22.27 41.48-13.54 9.19-29.56 5.17-38.94-9.09-9.47-14.4-5.55-38.03 7.92-47.79 4.88-3.53 10.25-4.99 16.02-3.81 10.71 2.2 15.62 15.58 9.19 24.85-2.5 3.6-5.81 6.05-9.97 4.13-4.33-1.99-4.79-6.15-3.32-10.6.57-1.74 1.43-3.37 2.84-6.62-3.37.57-5.81.33-7.56 1.4-9.26 5.67-12.45 21.42-6.54 31.11 6.38 10.47 17.56 12.31 27.41 4.51 15.52-12.29 18.92-33.06 8.37-51.79-4.16-7.38-9.82-14.08-7.48-24.99-7.87 1.35-13.81 4.47-18.77 9.1-9.28 8.65-18.09 17.91-27.13 26.87-7.24 7.17-14.38 14.46-21.84 21.35-7.89 7.28-17.46 9.41-27.55 8.92-9.9-.48-15.68-6.69-15.45-17.48.11-5.17 1.12-10.76 3.21-15.35 4.5-9.84 9.96-19.16 15.04-28.69 1.75-3.28 3.57-6.52 5.27-9.84 2.23-4.35 1.28-7.85-2.26-10.99-3.75-3.32-7.24-6.99-11.33-10.99-2.02 2.45-4.1 4.89-6.09 7.41-10.24 13-20.25 26.24-30.74 38.99-10.36 12.58-22.34 23.07-36.81 29.71-9.41 4.31-18.87 5.5-28.28-.45-8.8-5.56-13.42-13.77-11.7-24.64 1.1-6.95 3.29-14.11 6.6-20.12 3.19-5.8 4.06-10.86 1.67-16.81-.02.03-.24.39-.24.39Zm56.5-22.75c-15.06 4.79-25.08 14.15-34.88 25.95 17.52 1.68 32.83-9.25 34.88-25.95ZM896.25 253.98c3.78-5.79 7.8-11.41 11.29-17.39 8.06-13.82 15.71-27.91 23.8-41.7 6.73-11.49 15.5-20.84 27.53-25.38 5.12-1.93 11.01-2.98 16.32-2.29 4.07.52 8.2 3.86 11.52 6.94 2.86 2.65 5.24 6.92 2.69 11.19-2.66 4.45-6.62 2.55-10.42 1.34-3.12-.99-6.46-1.17-9.29-1.65-2.78 5.72.32 8.47 2.14 11.5 3.63 6.06 8.03 11.66 11.05 18.04 10.15 21.38 5.26 42.22-12.13 53.84-15.93 10.65-33.32 3.41-37.99-16.12-2.65-11.09.13-21.13 6.83-29.79 1.52-1.97 3.71-3.53 5.85-4.69 5.96-3.23 12.33-1.39 15.75 4.24 2.86 4.72 2.34 10.87-1.25 14.67-3.63 3.84-6.32 3.49-14.88-2.58-.85 3.8-2.23 7.25-2.29 10.72-.25 13.73 10.77 20.66 21.74 13.92 10.04-6.16 14.87-16.7 11.67-28.91-1.87-7.12-5.49-13.88-9.13-20.25-4.41-7.7-10.43-14.39-11.01-25-7.41 4-11.82 10.28-15.71 16.88-7.74 13.13-15.03 26.58-22.73 39.73-3.75 6.4-7.89 12.55-12.13 18.59-1.67 2.37-3.89 4.43-6.19 6.1-8.12 5.88-14.46 3.11-15.67-7.47-.68-5.88-.46-12.34 1.08-17.97 3.48-12.71 8.04-25.07 12.14-37.58 1.01-3.09 1.95-6.21 3.37-10.75-5.94-.69-10.62-1.23-14.92-1.73-6.52 14.24-12.44 27.96-19.02 41.31-6.67 13.54-15.23 25.46-27.21 34.21-7.14 5.21-14.45 8.14-22.59 3.36-7.94-4.67-10.67-12.91-10.87-22.04-.11-5.25.63-10.62 1.71-15.76 1.15-5.47 3.34-10.34-.23-16.12-2.35-3.8-.21-8.02 4.39-7.6 4.58.42 5.92-2.54 8.03-5.63 5.4-7.93 10.81-15.88 16.78-23.29 2.68-3.32 6.47-5.91 10.18-7.86 5.9-3.09 11.64-1.18 13.92 5.46 1.73 5.05 2.47 11.23 1.56 16.48-2.86 16.47-16.67 29.54-33 32.46-2.4.43-4.87.46-7.93.73-3.99 7.22-5.78 15.17-4.35 23.67 1.67 9.87 7.68 12.88 15.09 6.9 6.37-5.15 12.58-11.1 17.34-17.94 11.27-16.18 19.01-34.56 25.11-53.7.74-2.33.08-5.16.57-7.63 1.47-7.31 2.89-14.66 4.96-21.77.99-3.41 3.84-5.7 7.52-3.82 3.7 1.88 3.59 5.17 2.03 8.68-.15.34-.28.7-.4 1.05q-5.1 15.23 9.66 18.23c8.97 1.82 13.3 8.42 11.44 18.21-.69 3.66-2.51 7.06-3.69 10.63-3.88 11.79-7.81 23.57-11.48 35.44-.85 2.75-.73 5.86-1.06 8.8.83.36 1.66.73 2.5 1.09Zm-68.58-42.04c16.79-3.08 24.97-13.99 22.82-29.83-11.42 7.06-17.21 18.37-22.82 29.83ZM1515.76 434.53c1.66-1.57 2.65-2.5 3.63-3.44 3.59-3.44 7.58-4 11.54-1.12 3.86 2.81 5.29 7.09 4.23 11.99-1.2 5.54-4.88 8.03-9.89 8.57-11.28 1.21-22.99-9.66-23.9-22.21-.82-11.26 5.2-21.69 15.34-25.95 9.95-4.18 19.84-3.78 29.6 1.13 11.86 5.96 19.53 16.05 23.56 29.19 5.36 17.47-2.51 35.82-18.86 44.55-11.28 6.03-23.3 7.95-35.8 5.83-16.59-2.82-32-9.35-45.13-20.53-15.97-13.6-31.43-27.98-46.34-42.93-12.91-12.94-25.51-26.14-40.56-36.16-11.77-7.84-24.15-14.36-38.15-14.95-6.08-.26-12.47 1.3-18.31 3.39-5.09 1.82-7.02 7.15-6.68 12.99.34 5.97 3.9 8.43 9.96 9.61-.6-2.64-1.7-4.74-1.33-6.46.66-3.06 1.55-7.41 3.55-8.43 2.63-1.34 6.93-1.05 9.62.44 4.78 2.65 6.35 7.97 5.35 13.72-1.15 6.64-4.96 10.66-11.06 12.16-11.26 2.77-22.42-2.92-26.22-13.43-3.93-10.88.33-24.64 10.03-30.77 9.45-5.97 19.8-7.12 30.51-5.2 12.61 2.26 24.23 7.37 35.24 14.32 16.2 10.23 29.93 23.73 43.58 37.5 14.62 14.74 29.61 29.14 45.21 42.63 13.34 11.54 28.83 19.18 46.16 20.03 7.17.35 14.84-.65 21.6-3.17 18.58-6.95 23.21-25.81 11.22-42.76-7.76-10.97-19.66-15.64-30.62-12.01-9.14 3.03-11.89 10.17-7.09 21.46Z"/><path d="M1193.92 313.99c-26.18-2.32-52.34-5.26-78.56-6.8-38.48-2.26-77.01-3.5-115.51-5.21-14-.62-28-1.35-42-2.06-1.4-.07-3.05.16-4.12-.56-1.62-1.08-4.19-3.32-3.93-4.27.57-2.09 2.41-4.73 4.21-5.26 3.3-.97 6.94-.82 10.43-.71 63.73 2.11 127.53 2.65 191.09 9.19 12.21 1.26 24.4 2.73 36.6 4.1 1.05.12 2.11.16 3.13.4 3.56.82 7.32 1.93 6.71 6.97-.61 5-4.4 5.14-8.05 4.2ZM622.5 154.42c2.79-.16 5.72-.96 8.31-.27 1.97.52 4.69 2.75 4.94 4.57.24 1.77-1.84 4.67-3.59 5.8-1.96 1.26-4.69 1.17-7.11 1.53-49.54 7.43-99.13 14.5-148.6 22.43-20.74 3.32-41.22 8.48-61.83 12.75-2.74.57-5.59 1.36-8.3 1.08-2.45-.26-6.22-1.22-6.87-2.98-1.34-3.61 2-4.93 4.79-5.83 1.68-.54 3.32-1.22 5.01-1.68 39.4-10.7 79.34-18.37 119.55-24.36 31.19-4.65 62.43-8.88 93.65-13.3l.04.26ZM1403.34 155.52c2.44.35 5.62.54 8.69 1.27 50.69 12.05 101.08 25.3 149.68 45.48 3.58 1.49 7.43 2.83 10.35 5.33 1.67 1.43 2.93 5.68 2.15 7.56-.7 1.69-4.58 2.87-6.83 2.51-3.37-.54-6.51-2.66-9.78-4.02-49.27-20.44-100.38-33.67-151.76-45.83-2.39-.57-5.05-.72-7.06-2.02-1.81-1.16-2.9-3.64-4.31-5.53 2.02-1.63 4-3.33 6.1-4.83.47-.34 1.37 0 2.76.07ZM1321.27 317.46c29.34 5.17 58.7 10.19 88 15.56 20.34 3.73 40.6 7.96 60.91 11.95 1.37.27 3.23-.15 4.07.69 1.83 1.82 4.02 4.1 4.34 6.46.18 1.33-2.9 4.29-4.78 4.6-3.36.56-6.97 0-10.39-.66-34.44-6.58-68.83-13.42-103.29-19.88-12.06-2.26-24.25-3.65-36.37-5.51-2.76-.42-5.77-.58-8.14-1.94-2.07-1.19-3.39-3.9-5.04-5.94 2.11-1.51 4.11-3.29 6.38-4.41 1.11-.55 2.74.12 4.14.24l.18-1.17ZM1793.2 299.79c-3.94 2.13-6.13 4.25-8.32 4.24-2.63 0-5.36-1.58-7.86-2.89-39.8-20.96-81.24-37.29-123.28-51.95-3.99-1.39-8.06-2.85-11.65-5.1-1.67-1.05-2.29-4.08-3.38-6.21 1.99-1.07 3.97-2.99 5.98-3.02 2.69-.04 5.43 1.29 8.11 2.17 38.93 12.73 77.21 27.37 114.09 46.11 6.02 3.06 12.3 5.55 18.21 8.83 2.52 1.4 4.4 4.15 8.12 7.81ZM934.48 125.95c25.2.63 50.4 1.24 75.6 1.94 2.42.07 5.1.06 7.17 1.16 1.52.82 3.16 3.46 3.07 5.18-.09 1.72-1.99 3.96-3.6 4.78-1.75.9-4.12.69-6.19.51-39.95-3.45-79.82-.27-119.72 1.11-8.39.29-16.83.22-25.2-.43-2.01-.15-3.84-3.25-5.75-4.99 1.78-1.53 3.37-3.6 5.39-4.43 2.21-.91 4.82-.78 7.27-.91 20.64-1.06 41.29-2.07 61.94-3.1 0-.28.01-.55.02-.83ZM303.8 387.74c-1.35-1.28-4.11-2.73-4.76-4.91-.43-1.43 1.88-4.37 3.55-5.82 1.54-1.33 3.85-1.63 5.86-2.26 38.32-12.16 77.5-19.93 116.86-26.76 1.71-.3 3.78-1.08 5.11-.37 1.95 1.04 4.11 2.94 4.78 5.01.4 1.23-1.53 4.23-3.05 5.11-2.39 1.37-5.3 1.81-8.05 2.3-36.92 6.53-73.67 13.91-109.7 25.01-3.02.93-6.11 1.57-10.6 2.7ZM1511.98 357.06c4.09.86 6.89 1.23 9.58 2.04 32.35 9.74 64.69 19.51 97.01 29.37 3 .92 6.09 2.09 8.62 3.97 1.36 1.01 2.7 4.35 2.13 5.59-.88 1.92-3.27 3.66-5.28 4.13-1.82.42-4.01-.94-6.03-1.56-30.96-9.48-61.93-18.95-92.88-28.49-4.7-1.45-9.54-2.73-13.89-5.04-1.92-1.01-3.45-4.28-3.78-6.74-.13-.98 3.45-2.54 4.53-3.28ZM339 194.82c.8-5.77.89-10.42 2.24-14.59.74-2.29 3.58-3.78 5.48-5.63 1.71 2.12 4.37 4 4.91 6.42.86 3.87.3 8.1.34 12.63 3.06-.03 5.55-.58 7.73.08 2.04.62 5.41 2.76 5.28 3.8-.31 2.51-1.87 5.45-3.78 6.93-2.1 1.63-5.16 1.82-8.08 2.72-.38 6.3 2.43 10.2 6.78 13.2 3.37 2.33 5.4 5.58 2.73 9.42-2.73 3.93-6.48 2.03-9.36-.18-3.35-2.57-6.29-5.78-9.21-8.53-4.1 3.65-7.89 7.44-12.07 10.62-2.85 2.16-6.58 2.19-7.91-1.76-.69-2.05.66-5.64 2.12-7.66 3.1-4.29 6.88-8.01 11.54-13.28-4.8-1.73-7.92-2.24-10.35-3.93-1.73-1.21-3.65-4.17-3.42-6.04.22-1.75 2.99-3.96 4.95-4.4 2.94-.67 6.15.03 10.07.18ZM620.43 318.81c-1.26-1.26-4.28-2.99-4.99-5.49-.4-1.41 2.73-5.44 4.77-5.95 8.84-2.22 17.85-3.75 26.84-5.22 19.37-3.18 38.76-6.25 58.17-9.15 3.97-.6 8.83-2.04 10.55 4.1 1.17 4.18-2.06 6.36-9.52 7.54-26.32 4.17-52.61 8.47-78.91 12.75-1.73.28-3.44.71-6.91 1.44ZM698.94 162.18c-.99-.81-4.42-2.2-5.2-4.6-1.37-4.22 2.29-5.97 5.46-6.47 12.74-2.01 25.52-3.77 38.29-5.49 1.3-.17 3.13.07 3.97.96 1.6 1.68 3.79 4.1 3.61 5.96-.18 1.83-2.85 4.56-4.68 4.82-13.12 1.83-26.3 3.13-41.46 4.82ZM1679.63 416.2c13.71 4.74 26.38 8.89 38.83 13.68 1.87.72 4.03 4.61 3.82 6.78-.4 4.26-4.07 4.77-7.33 3.75-12.38-3.87-24.72-7.9-37.04-11.96-3.21-1.06-6.4-3.23-4.82-7.15.95-2.34 4.37-3.51 6.54-5.1ZM563.54 314.39c1.77 1.46 5.09 2.87 5.39 4.83.32 2.08-1.78 6.14-3.59 6.79a339.896 339.896 0 0 1-31.18 9.47c-2.02.51-5.84-1.28-6.82-3.21-1.85-3.65.66-6.52 4.02-7.63 10.32-3.42 20.7-6.61 32.19-10.25Z"/></g></svg>