<svg xmlns="http://www.w3.org/2000/svg" version="1.1" xmlns:xlink="http://www.w3.org/1999/xlink" width="1000" height="1000"><metadata><rdf:RDF xmlns:rdf="http://www.w3.org/1999/02/22-rdf-syntax-ns#" xmlns:dc="http://purl.org/dc/elements/1.1/"><rdf:Description><dc:creator>RealFaviconGenerator</dc:creator><dc:source>https://realfavicongenerator.net</dc:source></rdf:Description></rdf:RDF></metadata><g clip-path="url(#SvgjsClipPath1077)"><rect width="1000" height="1000" fill="#ffc0cb"></rect><g transform="matrix(0.9302325581395349,0,0,0.9302325581395349,161.39534883720933,100)"><svg xmlns="http://www.w3.org/2000/svg" version="1.1" viewBox="0 0 728 860" width="728" height="860"><g>
    <g id="Layer_2">
      <g id="Layer_1-2">
        <path d="M542.4,763.1c-6.2,2-12.1,3.9-17.8,5.7-6.6,35.8-40.9,36.6-52.2,6.3-12.5-4.6-24.8-9.1-37.9-13.9-53.8,70.5-169.4,89.7-234.5,23.8-16.7,14.1-37,15.3-58.4,11.6-22.1,28.3-60.5.4-51.1-31,.9-3.6,1.2-6.5-1.6-9.6-19.3-21.2-25.9-46.9-29-73.8-3.4-30.5.4-60.1,10.6-89.1,3.6-15.8,17.6-37.4,7.5-52.3C-17.5,393.2,17.6,190.6,172.2,93.8c215.7-150.8,536.2,46.2,507.7,305.7-.2,4,.5,6.9,3.8,9.9,23.6,22.2,27.5,49.5,11,77.2-16.1,27-47.8,47.1-49,81.1-.6,9.4-1.5,18.8-8.5,26.5-1.2,1.3-1.2,4.2-.9,6.2,6.9,46.2-10,85.8-38.4,122-3,3.8-3.3,6.8-1.5,11,14.5,36.7-28.1,64.3-53.8,29.6h0ZM607.8,604.3c-14.2-8-28.7-17.1-29.2-34.7-1.4-7.7,9.4-8.7,9.9-1,.3,24.8,43.2,36.9,46.2,6.2.5-6.9,1.4-13.8,2.8-20.5,5.8-27.1,29.3-45.3,44.8-66.9,51.5-77.9-70.8-115.6-90.2-32.6.2,4.5-3,6.8-6.2,9.4-3.3-3.4-5.6-5.9-5-11.1-25.8,3.2-50.7,3-75.3-5.3-2.3-.7-5.6-3.6-5.5-5.3.7-3,5.2-7,9-7.2,19.5-4.2,75.2-23.5,79.1-43.8-20.7,3.6-40.9,7.9-62,5.1-7.7-1.9-23-.5-24.3-10.6-.1-1.2,3.4-3.5,5.6-4,23.5-6.9,61-20,69.5-44.7-22.4,4.9-45,9.1-67.8,4.6-4.6-.9-11-.8-11.9-6.7-1-6.5,5.7-6.7,10-8.4,33.8-13.4,61.3-34.6,84.5-61,10.6-9.2-3.1-17.7-5.9-27.4-11-24.5-23.8-48.9-41-69.8-11.7-16.4-23.3-32.5-39.5-44.7-11.1-10-19.1-22.9-33.6-28.6-14.5-15.2-34.9-22.5-53.8-30.8-56.9-21.4-121.1-13.3-177,6.8-8,3-16.7,5.2-20.9,13.9-27.6,22.4-57.7,44.1-77.8,74-11.1,15.1-21,31-31.5,46.5-8.4,10.6,4.8,37.9,7.5,50.8,7.3,22,18.5,42.3,32.2,61.3,2,2.9,4.5,6.1,1.8,9.5-4.1,4.8-9.9.8-14.4-1.1-18.6-11.6-35.6-20.4-53.7-33.8-.3,33.5,31.7,76.2,54,101,3.5,2.5,6.1,8.3,4.5,12-14.8,11.9-68.9-37.1-81.1-47.7-7.1,14.6-9.8,30.5-17.3,44.9-3.4,6.9-4.3,12.8-2.8,19.6,3.1,12,3.9,24.7,9.3,36,39.5-26.4,76.9-6.4,116.3,7.6,20,6.5,43.1,17.2,62.3,3.1,25.4-16.8,4.1-50.6-22.2-47-3.3.2-7.3,1-7.9-3.4-.7-6,6.8-6.2,11.1-6.2,17.3.1,29.3,8.4,37.7,22.2,4.7,7.6,6.1,8.3,15.1,6.6,6.4-1.2,12.8-2.4,19-4,18.7-3.2,6.3-38.2,51.8-42.1,3.3-.2,7.3-.4,7.8,3.8.5,8.1-11.9,4.9-16.9,7.5-32.9,10.3-29.8,57.5,7.9,56.5,42-1.2,70.5-39.2,115-32.1,14.1-1.5,59.1,25,21.3,23.4-20.5-4.5-41.9-9.8-61.7,0-8.5,2.5-17.6.9-25.9,5-13.8,6.8-28.3,12.3-44.1,13.7-1.5.1-3.1,1.1-4.2,2.1-13,13.3-44.6,33.5-41.4,54,.4,1.4,0,3.2-.6,4.5-3.3,6.4-9.7,1-9.7-4.4-3.6-14.2-1.7-28.2,1.4-42.3-11.9.5-23,1-34.8,1.6,3.8,13,8.6,25.4,6.5,39,.2,5.8-6.6,13.4-10.2,5.3.7-10.1.6-13.2-8.1-19.5-27-25.2-61.9-36.3-96.6-47.5-12.4-5.7-18.4-1-30.5.9-17.8,1.9-34.1,9.1-48.4,19.5,6.4,18.6,15.7,34.8,25.9,50.7,6.4,13.8,29.3-3,36.7-9.3,43.9-35.1,63.9,5.2,103.8,3.8,2.9-.4,5.9,1,5.4,4-2.5,8.2-15.8,5.1-22.4,4.9-23.5-2.1-46,7.3-69.6,5.3-16.7-.4-32.7,1.5-47.2,7.3-16.4,53.8-41.4,113.2-9.4,166.2,2.4,4.2,5.1,5.5,10.3,4.5,5.6-1,7.8,2.6,5.4,7.6-2.9,3.8-5.5,8.5.8,10.5,8.6-7.7,14.1-18.3,21.2-27.4,1.9-2.7,3.5-5.9,7.5-4.2,6.4,3.2-.4,11.2,0,16.4-1.9,8.5,8.4,49.3,18.1,48.8,12-.7,35.2-1,41.4-12.8,2.8-6.3,6.9-5.3,10.2-.1,50.1,92,211,59.2,239.6-34.7,1.1-8.6,11.5-6.2,9.8,2-4.3,14.2,12.5,21.9,24.4,22.8,5.5-11,4.6-22.7,4.3-34.3-2.2-11.9,7.2-17.8,12.2-4.8,8.9,13.6,19.2,26.1,30.8,38.4l17-7.3c-.3-16.2-2.9-31.8-10.9-46.4-5.5-7.9,3-13.9,9.2-6.9,14.2,11.8,32,17.1,49.2,26,19.1-23.5,29-43.3,22.7-73.8-.7-13.1-7-26.2,0-38.5h0ZM669.7,399.7c4.5-60.9-7.3-118.5-36.5-174.7-23.3,43.7-57.7,76-99.7,100.9,3.3,19.3,56.2-6.5,69.3-8.6,4-1.3,8.4-4.3,11.8,0,3.8,4.8-1,8.1-3.8,11.3-17.2,20.4-39.5,34.9-62.3,48.9,2.6,3.6,4.6,6.4,6.7,9.3,23.2-1.4,43.9-9.5,64.8-17.7,15.3-2.1,4.8,13.5-1.2,18.1-19.8,20.9-45.3,32.7-70.8,46.2,4.3,11.6,15.7,12.1,26.1,10.8,7-.4,11.3-2.5,14.3-9.1,13.7-32.4,48.5-38.4,81.4-35.4h0ZM109.1,374.4c-15.3-25-30.4-49.6-37.8-77.9-.8-7.2-10-29-1-31.8,3.9-1.4,5.9,1.3,8.1,3.9,10.8,14.8,25.8,24.9,40.5,35.6,3,2.2,6.5,3.5,8.7.1-16.6-40.3-33.2-77.3-33.6-121.9-23.9,28.8-55,94.5-51.7,130.8,16.8,18.2,39.4,64.3,66.9,61.3h0ZM240.2,475.1c26.5,7,53.2,1.7,63.3-12.3-3.7-2.9-6.1.6-8.8,1.8-14.7,6.5-29.8,10.1-45.9,6-4.5-1.2-6.8,0-8.6,4.6h0Z"></path>
        <path d="M397,691.9c-20.9,3.9-25.1,23.2-31.4,39.9-8.2,17.3-22.7,35.2-44.3,29.8-16-3.2-30.5-1.4-44.6,7-23.9,14.7-44.3-6.9-55.9-26.9-8.4-11.8-27.7-25.6-40.9-12.5-5.4,5.4-12,9.8-18.6,13.8-3.5,2.1-8,3-12.2,3.4-5.1-.2-9.4-7.7-1.5-9,16.5-3.4,26.7-14.6,35.6-26.8,33.7-55,79.8-108.5,151.2-80.1,27.4,9.9,45.5,32.5,66.7,51,9.6,8.6,21.3,15.3,33.9,18.9,5.7,4.2,4.7,10.8-3,8.8-12.8-3.5-23.9-10.3-35-17.4h0ZM370.5,695.3c-53,18.2-98.2,34.7-155.2,24.8,8.5,7.7,13.3,20,26.2,18.3,25.2-1.9,50.8-1.9,75.3-8.8,11-3.1,21.8-6.9,33-9.6,13.7-3,13.4-13.8,20.7-24.8h0ZM297.9,633.2c1.7,9.3-1.9,25.7,5.9,31.3,7.9,4.8,37.1-1,42.9-8.1,11.9-13.7-38.2-24.3-48.8-23.2h0ZM222.2,672.9c26.3,4.9,46.5-.8,37.9-31.5-14.7,8-27.5,16.8-37.9,31.5ZM230.1,309.5c4.9-56.7,34.4-109,34.3-166-.9-3.5,2.2-7.6,5-8.6,3.6-.6,5.4,2.1,5.1,5.4.9,38.6-13.3,74.5-22.5,111.4-3.3,13.4-5.3,27.1-6.9,40.7-1,8.1.5,8.7,10.3,9,14.1-34.1,29-68,42-102.5,5.1-14,8.4-28.4,7.4-43.4-.2-3,0-6.5,1.3-9.1,20.1-18.1,3.4,54.7-.9,60.9-13.1,33.6-30.6,65.4-37.1,101.2,23-24.1,35.5-54.9,53.8-82.5,11.9-20.2,19.6-41.8,20.6-65.2-.7-4.4,3.4-5.7,6.2-8,1.5,1.8,4.3,3.7,4.3,5.5-2.1,63.2-51,109.9-75.7,164.9,3.7,4,7.5,5.1,11.2,1.2,18.3-19.4,41.5-33.1,63-48.7,31.2-22.8,57.5-60.5,50.6-100.4-1.3-3.4,1.5-6.7,4.3-7.9,1.1-.3,4,1.5,4.4,2.7,9.3,34.4-7.7,67.7-30.6,93.3-12.9,14.2-28.7,25-44.9,35.5-35.8,23.5-70.5,60.1-68.3,105.3,1.5,12.2-8,10.8-13.6,2.7-58.5-63.7-31-149.9-15.9-224.6,2.3-11.6,1.3-23.1-1.5-34.6-2.2-4.8-1.2-8.5,2.5-12.1,2,1.3,5.3,2.4,5.7,4,1.9,8.6,3.8,17.2,4.3,26-.7,48.4-22.1,95.2-20.5,143.8.7,0,1.3,0,2,.1h0ZM250.6,315.1c-.5,0-1,.1-1.5.2-.1,1.7-.2,3.4-.4,7,2.8-3.9,2.7-3.7,2-7.2h0ZM509.8,639.8c-39-5.4-47.9-44.1-56-76.4-2.2-7.2-5.2-14.2-8-21.2-2.1-3.9-4.6-9.8.5-12.6,3.3-1.7,5.7.5,7.6,2.6,20.5,25.1,55.8,27.9,79.6,48.2,24.5,21,13,60.8-23.8,59.5ZM630,473.1c-7-8.3-6.7-17.3-8.8-26.5-6.8,6.5-8.7,13.9-8.7,22.3-.9,1.7-2.8,4.1-4.2,4.1-3.4-.4-6.4-4.3-5.7-8.1-2.2-43.2,71.5-56,71.2-7.2-7,52.7-55.8,17.8-49.1,97.3-.2,9.1-10.7,20.3-20.1,15.4-4-6.8,8.3-32,9-41.9,2.4-11.3,6.2-21.8,13.2-31.1,3.6-4.7,5-9.9,2.1-14.9-2.3-4-1.8-6.9,1-9.5h0ZM97.6,652.6c-.4-21.8,11.1-35.5,22.9-51,8.3-9.8,14.4-21,19.1-32.6,4.1-3.6,11.7-3.7,9.3,3.4-9.5,24.2,7.5,47.3,4.7,72-.1,18.3-19.1,40.4-39.1,33.1-11-3.6-17.2-14.2-16.8-24.8h0ZM444.4,596.8c-5,39.2-47.4,29.3-54.1-1.8-2.9-19.6-1.6-40.1-1.9-59.9,1.6-6.9,9.1-3.8,10.9,1.3,5,9.7,12.8,17.4,20.7,25.1,10.8,10,20.5,20.9,24.4,35.3h0Z"></path>
        <path d="M474.4,697.4c-4.1,4.5-8.6,5.9-13.3,2.2-16.3-13.2-32.2-26.7-48.5-39.8-20.4-14.6-33.3-17.1-48.5-40-9.5-12.6-14.1-27.2-22.3-40.2-4.3-7.3-3.8-17.2-9-24.3-1.7-2.3-3.3-4.6-.6-6.4,8.1-4.4,15.1,5.7,20.2,10.5,7.2,8.8,11.2,19.2,13.9,29.9,11.6,77.3,80.7,38.6,108.1,108h0ZM436.4,505.7c-3.3,8.1-25.1,3.7-32.8,4.7-7.9.5-15.6,2.1-23.5,2.9-9.5,1-17.4,4.2-24.5,10.6-8.9,7.8-22.3,12.8-34.4,11.8-6.8-3-3.8-9.2,2.9-9.2,44.7-4.8,44.9-63.6,101.5-39.6,15.6,7.7,29.2,19.5,47.8,18.3,8.5-.2,11.5,1.5,10.6,5.2-1.4,5.8-6.7,4.3-10.6,4.1-13-.2-25.2-3.6-37-8.8h0ZM206.2,574.5c-7.3,21.7-14.3,44.1-14.6,67.1-2.4,29.8-13,61.9-38.1,80.3-19.5,4.9-3.1-24.1,3.1-30.1,25.7-28.6,23.8-39.5,22.1-75.8-.3-14.9,3.8-28.6,13.6-40.4,3.4-4.9,13-11.7,13.9-1.1ZM231.1,588.2c-26.6-13.9-13.5-45.4,13.5-44.1,4.9,1.6,8,5.2,1.8,8.8-10.1,4.8-20.4,23.1-5.8,28.5,8.7,3.4,16.6,9.3,20.6,17.7,4,8.5-.2,17.9-8.5,21.5-20,8.2-36.3-16.5-21.7-32.3h0ZM310.5,587.7c13.4,22.2-15.7,38.8-31.1,21.4-5.6-6.8-4.4-16.5,3.4-21.5,8.8-5.6,30.4-8.5,19.5-22.8-4.2-5.7-7.7-12.5-15.6-15.1-1.4-.5-2.9-2.9-2.7-4.2,5.5-12.4,32.8,1.3,35.2,13,5,11.6-.1,20.7-8.7,29.2h0ZM601.8,508.7c.7,10.1-9.6,39.5-23.1,31-.8-.6-.3-4.4.9-5.5,15.2-13.6,13.7-29.2,6.6-45.7-2.3-2.6-.7-5.5-.3-8.5,13.8-.6,13.4,18.9,15.8,28.6h0ZM520.6,534.1c-3.1,3.6-6.1,5.6-10.6,3.5-7.5-3.2-14.9-6.5-22.3-9.9-7.9-2.8-2.8-12.1,4.1-8.4,9.3,5,21.9,6.6,28.8,14.8h0ZM508.1,517.1c-6.5,0-12.9,1.6-17.1-4.7,1.7-1.5,3.3-4.3,5.1-4.5,8.2-.7,16.4-.9,24.6-.6,2,0,5.2,2.2,5.6,3.9.2,8.3-12.9,4.4-18.3,5.2v.6h0ZM523.1,492.6c-8.7,4.3-17.7,8.2-26.5,12.4-2.7,1.3-5.2,1.3-6.9-1.3-1.9-3-.5-5.6,2.5-7,5.9-1.5,28.4-18.1,28.9-5.9.7.6,1.3,1.2,2,1.9h0ZM560.3,642c-3.5-6.4-8.7-13.9.7-14,8,2.6,3.8,8.2-.7,14ZM604.1,676c-12.5,11.6-17.9.3-8.1-3.7,1.7-.4,4,1.7,8.1,3.7ZM497.5,547.1c-6.1,5.6-6.6,4.9-11.6.2,4.5-6.5,5.3-5.3,11.6-.2ZM497.7,665.3c-2.5-2.7-4.5-4-5-5.7-.9-2.7,2.4-6.1,5.1-5.4,6.3,2.7,3.8,6.1,0,11.1h0ZM133.4,692.8c-3.3,2.5-5.2,4.6-7.5,5.2-9.2-2.9-3.1-14.9,7.5-5.2ZM559.7,608.1c-4.2-4.4-6.9-7.5-.6-10.3,2.8-.9,6.2,2.1,5.4,4.7-.5,1.7-2.4,3-4.8,5.6h0ZM596.3,612.1c-9.8,11-17,.6-6.5-3.8,1.3-.3,3.4,1.9,6.5,3.8Z"></path>
        <path d="M408.8,629.4c-4.1,4.5-7,6.2-10.2,1-1-2.8,1.2-5,4.1-4.9,1.8,0,3.5,2.1,6.1,3.9ZM572.7,556c-5.1,4.2-8.4,7.4-11.6,1.5,2.1-7.3,5-5.7,11.6-1.5ZM544.8,659.6c-3.6,2-5.8,3.8-8.2,4.2-8.7-4.2-1.2-14.6,8.2-4.2ZM102.1,706.8c-6.2,2.7-10.1,4.8-11.6-1.6,4.1-6.3,6.3-4.4,11.6,1.6ZM496.4,684c-3.3,1.9-5.3,3.8-7.3,3.8-8.4-4.5-1.7-14.5,7.3-3.8ZM569.6,677.7c-12.4-10.7-.3-15.4,3.4-7.8.2,1.9-1.6,4-3.4,7.8ZM82.3,685.3c-4.1-5.6-7-8.9-.1-11.2,7.1,2.1,4.1,5.4.1,11.2ZM380.3,605.1c-10-9.4,1.2-14.5,4.9-6.2-.3,1.9-2.6,3.4-4.9,6.2ZM441.9,560.4c-6,4.8-7.9,5-11-.9,3-6.1,5.9-3.4,11,.9ZM163.1,606.2c-4.1-5.7-6.7-9.2,0-11.3,6.7,2.1,3.9,5.7,0,11.3ZM454.1,647.6c-5.2,6-6.4,6.6-10.6.9,1.6-6.7,5.3-4.1,10.6-.9ZM593.5,639.2c5.3,6.1,5.5,7.3-.9,10.2-6.2-2.8-3.4-5.4.9-10.2ZM175.7,643.2c-8.5,11.2-16.3,1.5-6.3-3.5,1.1-.4,3.3,1.8,6.3,3.5ZM101.4,593.5c2,2.6,4,4.1,4.2,5.7.4,2.7-1.5,5-4.6,4.3-5.5-2.9-4-5.5.4-10h0ZM423.5,531.9c-5,4.7-7.7,6.7-11.1,1.3,1.3-6.7,5.5-4.3,11.1-1.3ZM88.6,640.2c-2.4-2.5-4.7-3.9-4.8-5.3,1.7-9.2,13.9-4.7,4.8,5.3ZM376.5,551.6c-5.4,3.6-8.1,5-10.2-1,3.2-5.6,5.5-3.6,10.2,1ZM460.8,604c-5.5,3.7-8.1,5.2-10.2-1,2.7-5.1,5.7-2.6,10.2,1ZM538.8,570.1c-6.6-5.1-5.6-5-.5-9.7,5.5,3.7,5,4.3.5,9.7ZM469.3,630.4c-4.7,4.8-6.3,4.9-9.4,0,2.1-5.2,4.9-3.2,9.4,0ZM152,681.4c-4.5-4.6-6.3-7-.4-9.5,5.9,2.2,4.5,4.5.4,9.5Z"></path>
      </g>
    </g>
  </g></svg></g></g><defs><clipPath id="SvgjsClipPath1077"><rect width="1000" height="1000" x="0" y="0" rx="500" ry="500"></rect></clipPath></defs></svg>